<svg xmlns="http://www.w3.org/2000/svg" width="240" height="67.238" viewBox="0 0 240 67.238">
  <g id="Logo" transform="translate(-100.052 -242.19)">
    <g id="Group_3" data-name="Group 3" transform="translate(100.052 242.19)">
      <path id="Path_28" data-name="Path 28" d="M100.052,295.72a6.427,6.427,0,0,0,5.528-2.777q1.789-2.671,1.789-9.024V254.545a9.637,9.637,0,0,0-.321-2.938,1.909,1.909,0,0,0-1.2-1.227,10.669,10.669,0,0,0-2.8-.429v-1.067q2.244.159,6.73.16,4.378,0,6.888-.16v1.067a10.663,10.663,0,0,0-2.8.429,1.918,1.918,0,0,0-1.2,1.227,9.642,9.642,0,0,0-.32,2.938v19.546q0,4.54-.16,8.037a31.209,31.209,0,0,1-.749,5.9,11.092,11.092,0,0,1-11.375,8.7Z" transform="translate(-100.052 -244.825)" fill="#172638"/>
      <path id="Path_29" data-name="Path 29" d="M157.516,268.256q3.336,3.6,3.338,10.921t-3.338,10.895a12.577,12.577,0,0,1-17.572,0q-3.336-3.577-3.338-10.895t3.338-10.921a12.507,12.507,0,0,1,17.572,0Zm-13.86.747q-1.869,3.286-1.868,10.174t1.868,10.148a5.58,5.58,0,0,0,10.147,0q1.87-3.258,1.869-10.148T153.8,269q-1.869-3.285-5.074-3.284T143.656,269Z" transform="translate(-114.443 -251.032)" fill="#172638"/>
      <path id="Path_30" data-name="Path 30" d="M236.815,248.559a18.563,18.563,0,0,1,4.379,2.563,1.726,1.726,0,0,0,1.015.481q1.068,0,1.388-3.2h1.229q-.215,3.473-.214,12.284h-1.227a41.642,41.642,0,0,0-1.07-4.994,8.891,8.891,0,0,0-1.6-2.911,9.9,9.9,0,0,0-4.085-3.124,13.733,13.733,0,0,0-5.368-1.042,8.846,8.846,0,0,0-6.061,2.3,14.922,14.922,0,0,0-4.033,6.542,31.017,31.017,0,0,0-1.442,9.96,28.724,28.724,0,0,0,1.548,9.987,14.031,14.031,0,0,0,4.3,6.329,9.8,9.8,0,0,0,6.223,2.163,13.707,13.707,0,0,0,5.18-1.016,8.736,8.736,0,0,0,3.953-3.043,10.283,10.283,0,0,0,1.548-3.206,38.093,38.093,0,0,0,.909-5.234h1.227q0,9.187.214,12.819H243.6a9.419,9.419,0,0,0-.455-2.431q-.293-.721-.827-.721a2.353,2.353,0,0,0-1.121.427,22.5,22.5,0,0,1-4.593,2.591,14.173,14.173,0,0,1-5.286.881,16.91,16.91,0,0,1-8.892-2.3,15.314,15.314,0,0,1-5.929-6.648,23.615,23.615,0,0,1-2.108-10.388,23.944,23.944,0,0,1,2.162-10.414,16.77,16.77,0,0,1,6.035-7.05,15.8,15.8,0,0,1,8.784-2.509A14.542,14.542,0,0,1,236.815,248.559Z" transform="translate(-145.063 -244.34)" fill="#172638"/>
      <path id="Path_31" data-name="Path 31" d="M284.641,279.093a3.994,3.994,0,0,0,.909,3.018,4.67,4.67,0,0,0,3.15.829v1.121q-4.912-.212-6.461-.214t-6.461.214v-1.121a4.668,4.668,0,0,0,3.15-.829,3.994,3.994,0,0,0,.909-3.018V248.6a5.676,5.676,0,0,0-.909-3.578,3.842,3.842,0,0,0-3.15-1.124v-1.121q1.654.162,3.31.16a17.435,17.435,0,0,0,5.554-.747Z" transform="translate(-169.233 -242.19)" fill="#172638"/>
      <path id="Path_32" data-name="Path 32" d="M307.615,291.593a6.425,6.425,0,0,1-1.63-4.673,5.9,5.9,0,0,1,1.309-3.951,9.849,9.849,0,0,1,3.1-2.457,38.419,38.419,0,0,1,4.726-1.923,24.885,24.885,0,0,0,4.433-1.87,2.582,2.582,0,0,0,1.442-2.3v-3.31q0-3.1-1.307-4.247a5.368,5.368,0,0,0-3.659-1.148q-3.741,0-5.288,1.923a3.368,3.368,0,0,1,1.79,1.121,3.2,3.2,0,0,1,.721,2.137,2.7,2.7,0,0,1-.855,2.108,3.13,3.13,0,0,1-2.19.775,2.7,2.7,0,0,1-2.243-.935,3.51,3.51,0,0,1-.747-2.269,3.562,3.562,0,0,1,.613-2.136,7.555,7.555,0,0,1,1.844-1.71,11.067,11.067,0,0,1,3.258-1.494,15.144,15.144,0,0,1,4.325-.589q4.165,0,6.3,1.976a6.033,6.033,0,0,1,1.79,2.964,18.709,18.709,0,0,1,.454,4.567V289a3.717,3.717,0,0,0,.373,1.923,1.4,1.4,0,0,0,1.281.586,2.544,2.544,0,0,0,1.2-.292,7.014,7.014,0,0,0,1.2-.829l.587.909a13.042,13.042,0,0,1-2.377,1.522,5.969,5.969,0,0,1-2.483.452q-2.565,0-3.578-1.281a5.427,5.427,0,0,1-1.015-3.47,9.3,9.3,0,0,1-3.684,3.71,10.364,10.364,0,0,1-4.7,1.041A6.662,6.662,0,0,1,307.615,291.593Zm13.377-4.511V276.614a3.7,3.7,0,0,1-1.336,1.227q-.855.481-2.617,1.282a24.573,24.573,0,0,0-3.284,1.63,7.177,7.177,0,0,0-2.162,2.109,5.952,5.952,0,0,0-.909,3.418,5.054,5.054,0,0,0,1.176,3.632,4.086,4.086,0,0,0,3.1,1.23Q318.483,291.14,320.992,287.082Z" transform="translate(-181.125 -251.032)" fill="#172638"/>
      <path id="Path_33" data-name="Path 33" d="M376.1,266.68a6.106,6.106,0,0,1,1.442,2.67,17.545,17.545,0,0,1,.426,4.327v14.259a3.994,3.994,0,0,0,.907,3.018,4.673,4.673,0,0,0,3.152.829V292.9q-4.915-.212-6.409-.214t-5.981.214v-1.121a3.679,3.679,0,0,0,2.751-.829,4.458,4.458,0,0,0,.775-3.018V272.5a9.8,9.8,0,0,0-.855-4.566q-.855-1.576-3.472-1.576a6.324,6.324,0,0,0-3.9,1.282,8.268,8.268,0,0,0-2.643,3.5,12.576,12.576,0,0,0-.935,4.94v11.856a4.448,4.448,0,0,0,.774,3.018,3.673,3.673,0,0,0,2.75.829V292.9q-4.485-.212-5.981-.214t-6.409.214v-1.121a4.672,4.672,0,0,0,3.152-.829,3.991,3.991,0,0,0,.909-3.018V271.219a5.673,5.673,0,0,0-.909-3.578,3.845,3.845,0,0,0-3.152-1.122V265.4q1.711.159,3.312.16a17.44,17.44,0,0,0,5.554-.749v6.3a9.888,9.888,0,0,1,3.712-4.941,9.747,9.747,0,0,1,5.366-1.522A7.444,7.444,0,0,1,376.1,266.68Z" transform="translate(-199.433 -251.032)" fill="#172638"/>
      <path id="Path_34" data-name="Path 34" d="M428.734,266.36a4.836,4.836,0,0,1,2.511,4.113,2.955,2.955,0,0,1-.8,2.189,2.749,2.749,0,0,1-2.03.8,3.119,3.119,0,0,1-2.083-.721,2.418,2.418,0,0,1-.855-1.948,2.868,2.868,0,0,1,.643-1.9,3.108,3.108,0,0,1,1.6-1.041,4.042,4.042,0,0,0-1.9-1.6,6.763,6.763,0,0,0-2.911-.641,6.1,6.1,0,0,0-3.685,1.256,9.043,9.043,0,0,0-2.831,4.167,21.731,21.731,0,0,0-1.122,7.663q0,6.622,2.137,9.639a6.524,6.524,0,0,0,5.554,3.018,7.862,7.862,0,0,0,4.353-1.336,9.742,9.742,0,0,0,3.39-4.165l1.016.375a11.112,11.112,0,0,1-3.392,5.234,9.37,9.37,0,0,1-6.435,2.189,11,11,0,0,1-6.007-1.708A11.613,11.613,0,0,1,411.645,287a17.172,17.172,0,0,1-1.548-7.5,17.937,17.937,0,0,1,1.576-7.69,12.58,12.58,0,0,1,4.4-5.26,11.348,11.348,0,0,1,6.461-1.9A11.066,11.066,0,0,1,428.734,266.36Z" transform="translate(-222.113 -251.032)" fill="#172638"/>
      <path id="Path_35" data-name="Path 35" d="M478.618,265.885v1.067a3.019,3.019,0,0,0-1.9.961,8.482,8.482,0,0,0-1.576,2.778l-8.758,22.964-1.816,4.647a9.5,9.5,0,0,1-2.3,3.739,4.633,4.633,0,0,1-1.922,1.067,8.113,8.113,0,0,1-2.243.32,3.92,3.92,0,0,1-2.617-.855,2.908,2.908,0,0,1-1.016-2.348,2.832,2.832,0,0,1,.749-2.057,2.76,2.76,0,0,1,2.083-.775,2.869,2.869,0,0,1,1.948.669,2.3,2.3,0,0,1,.775,1.842,2.589,2.589,0,0,1-1.441,2.4.741.741,0,0,0,.32.054q2.937,0,4.539-4.167l1.87-4.86L455.653,270a6.08,6.08,0,0,0-1.816-2.4,3.327,3.327,0,0,0-1.816-.587v-1.121a38.457,38.457,0,0,0,5.234.32q2.671,0,6.944-.32v1.121a8.87,8.87,0,0,0-2.805.321,1.449,1.449,0,0,0-.881,1.548,6.81,6.81,0,0,0,.641,2.617l6.409,15.915,5.927-15.434a7.811,7.811,0,0,0,.589-2.457,1.978,1.978,0,0,0-.961-1.814,7.082,7.082,0,0,0-3.046-.749v-1.067q2.83.159,4.487.16Q476.909,266.045,478.618,265.885Z" transform="translate(-238.618 -251.518)" fill="#172638"/>
    </g>
    <g id="Group_4" data-name="Group 4" transform="translate(117.348 301.523)">
      <path id="Path_36" data-name="Path 36" d="M132.5,340.048a3.641,3.641,0,0,1,2.963,1.43l-.756.469a2.813,2.813,0,0,0-2.207-1.054,3.111,3.111,0,0,0,0,6.212,3,3,0,0,0,2.047-.823v-1.555h-2.619v-.846H135.5v2.755a3.975,3.975,0,0,1-3,1.317,3.953,3.953,0,0,1,0-7.905Z" transform="translate(-128.579 -340.048)" fill="#172638"/>
      <path id="Path_37" data-name="Path 37" d="M154.453,344.853h-1.521v3.033h-.95v-7.629h3.066a2.221,2.221,0,0,1,2.39,2.3,2.106,2.106,0,0,1-1.978,2.218l2.058,3.113H156.4Zm.479-3.751h-2v2.917h2a1.46,1.46,0,1,0,0-2.917Z" transform="translate(-137.792 -340.13)" fill="#172638"/>
      <path id="Path_38" data-name="Path 38" d="M177.187,346.191h-3.866l-.674,1.7h-1.053l3.066-7.629h1.177l3.077,7.629h-1.053Zm-3.591-.846h3.3l-1.647-4.243Z" transform="translate(-145.513 -340.13)" fill="#172638"/>
      <path id="Path_39" data-name="Path 39" d="M194.751,340.257h3.066a2.3,2.3,0,1,1,0,4.6H195.7v3.033h-.95Zm2.95.845h-2v2.906h2a1.455,1.455,0,1,0,0-2.906Z" transform="translate(-154.63 -340.13)" fill="#172638"/>
      <path id="Path_40" data-name="Path 40" d="M220.679,344.384h-4.461v3.5h-.948v-7.629h.948v3.282h4.461v-3.282h.949v7.629h-.949Z" transform="translate(-162.708 -340.13)" fill="#172638"/>
      <path id="Path_41" data-name="Path 41" d="M238.144,340.257h.95v7.629h-.95Z" transform="translate(-171.713 -340.13)" fill="#172638"/>
      <path id="Path_42" data-name="Path 42" d="M251.584,343.993a3.808,3.808,0,0,1,3.889-3.945,3.433,3.433,0,0,1,2.928,1.509l-.8.447a2.589,2.589,0,0,0-2.127-1.11,3.107,3.107,0,0,0,0,6.2,2.559,2.559,0,0,0,2.127-1.11l.812.446a3.465,3.465,0,0,1-2.939,1.51A3.808,3.808,0,0,1,251.584,343.993Z" transform="translate(-177.004 -340.048)" fill="#172638"/>
      <path id="Path_43" data-name="Path 43" d="M284.068,340.257h2.608a3.816,3.816,0,1,1,0,7.629h-2.608Zm2.608,6.782a2.968,2.968,0,0,0,0-5.936h-1.659v5.936Z" transform="translate(-189.793 -340.13)" fill="#172638"/>
      <path id="Path_44" data-name="Path 44" d="M306.719,340.257h5v.845h-4.05v2.459h3.97v.848h-3.97v2.63h4.05v.848h-5Z" transform="translate(-198.71 -340.13)" fill="#172638"/>
      <path id="Path_45" data-name="Path 45" d="M326.7,346.015a3.227,3.227,0,0,0,2.4,1.086c1.36,0,1.8-.732,1.8-1.317,0-.913-.927-1.166-1.933-1.439-1.224-.321-2.585-.665-2.585-2.163,0-1.258,1.121-2.116,2.619-2.116a3.585,3.585,0,0,1,2.712,1.065l-.572.7a2.921,2.921,0,0,0-2.209-.916c-.914,0-1.566.494-1.566,1.214,0,.765.881.994,1.853,1.257,1.247.332,2.666.721,2.666,2.323,0,1.11-.757,2.241-2.815,2.241a3.778,3.778,0,0,1-2.928-1.213Z" transform="translate(-206.356 -340.055)" fill="#172638"/>
      <path id="Path_46" data-name="Path 46" d="M347.393,340.257h.95v7.629h-.95Z" transform="translate(-214.723 -340.13)" fill="#172638"/>
      <path id="Path_47" data-name="Path 47" d="M364.756,340.048a3.643,3.643,0,0,1,2.964,1.43l-.757.469a2.812,2.812,0,0,0-2.207-1.054,3.111,3.111,0,0,0,0,6.212,3,3,0,0,0,2.047-.823v-1.555h-2.619v-.846h3.569v2.755a3.977,3.977,0,0,1-3,1.317,3.953,3.953,0,0,1,0-7.905Z" transform="translate(-220.014 -340.048)" fill="#172638"/>
      <path id="Path_48" data-name="Path 48" d="M385.186,341.732v6.154h-.95v-7.629h.973l4.392,6.027v-6.027h.95v7.629h-.915Z" transform="translate(-229.228 -340.13)" fill="#172638"/>
      <path id="Path_49" data-name="Path 49" d="M407.037,340.257h5v.845h-4.05v2.459h3.969v.848h-3.969v2.63h4.05v.848h-5Z" transform="translate(-238.204 -340.13)" fill="#172638"/>
      <path id="Path_50" data-name="Path 50" d="M429.686,344.853h-1.522v3.033h-.95v-7.629h3.066a2.221,2.221,0,0,1,2.39,2.3,2.106,2.106,0,0,1-1.978,2.218l2.058,3.113h-1.122Zm.479-3.751h-2v2.917h2a1.46,1.46,0,1,0,0-2.917Z" transform="translate(-246.148 -340.13)" fill="#172638"/>
    </g>
  </g>
</svg>
