<svg xmlns="http://www.w3.org/2000/svg" width="520" height="145.682" viewBox="0 0 520 145.682">
  <g id="Logo" transform="translate(-100.052 -242.19)">
    <g id="Group_1" data-name="Group 1" transform="translate(100.052 242.19)">
      <path id="Path_1" data-name="Path 1" d="M100.052,350.362q8.1-.231,11.977-6.017t3.875-19.553V261.148a20.88,20.88,0,0,0-.695-6.365,4.136,4.136,0,0,0-2.6-2.659,23.116,23.116,0,0,0-6.074-.929v-2.312q4.861.345,14.582.347,9.486,0,14.923-.347V251.2a23.1,23.1,0,0,0-6.073.929,4.156,4.156,0,0,0-2.6,2.659,20.89,20.89,0,0,0-.694,6.365V303.5q0,9.837-.347,17.414A67.617,67.617,0,0,1,124.7,333.7a24.649,24.649,0,0,1-8.5,13.653q-6.424,5.206-16.142,5.2Z" transform="translate(-100.052 -240.09)" fill="#fff"/>
      <path id="Path_2" data-name="Path 2" d="M181.911,272.462q7.228,7.809,7.232,23.662t-7.232,23.605q-7.234,7.754-19.037,7.752t-19.037-7.752q-7.228-7.75-7.232-23.605t7.232-23.662q7.234-7.815,19.037-7.812T181.911,272.462Zm-30.029,1.619q-4.049,7.119-4.047,22.044t4.047,21.987q4.049,7.058,10.993,7.058t10.993-7.058q4.051-7.058,4.049-21.987t-4.049-22.044q-4.049-7.118-10.993-7.115T151.881,274.081Z" transform="translate(-88.586 -235.145)" fill="#fff"/>
      <path id="Path_3" data-name="Path 3" d="M262.983,249.617a40.22,40.22,0,0,1,9.487,5.553,3.74,3.74,0,0,0,2.2,1.042q2.313,0,3.007-6.941h2.663q-.465,7.525-.464,26.615h-2.659a90.226,90.226,0,0,0-2.317-10.82,19.264,19.264,0,0,0-3.471-6.307,21.448,21.448,0,0,0-8.85-6.768,29.753,29.753,0,0,0-11.63-2.257,19.166,19.166,0,0,0-13.133,4.976q-5.618,4.976-8.737,14.173a67.205,67.205,0,0,0-3.124,21.58q0,12.615,3.354,21.639t9.315,13.713a21.241,21.241,0,0,0,13.482,4.686,29.7,29.7,0,0,0,11.224-2.2,18.927,18.927,0,0,0,8.564-6.593,22.281,22.281,0,0,0,3.354-6.945,82.538,82.538,0,0,0,1.969-11.341h2.659q0,19.9.464,27.774h-2.663a20.408,20.408,0,0,0-.985-5.267q-.634-1.563-1.792-1.562a5.1,5.1,0,0,0-2.429.925,48.74,48.74,0,0,1-9.952,5.613,30.709,30.709,0,0,1-11.453,1.909,36.638,36.638,0,0,1-19.266-4.976,33.181,33.181,0,0,1-12.846-14.4q-4.57-9.431-4.568-22.507a51.878,51.878,0,0,1,4.685-22.564,36.334,36.334,0,0,1,13.076-15.275,34.222,34.222,0,0,1,19.033-5.436A31.509,31.509,0,0,1,262.983,249.617Z" transform="translate(-64.188 -240.477)" fill="#fff"/>
      <path id="Path_4" data-name="Path 4" d="M294.983,322.146q0,4.745,1.969,6.538t6.825,1.8v2.429q-10.643-.459-14-.464t-14,.464V330.48q4.861,0,6.825-1.8t1.969-6.538V256.077q0-5.32-1.969-7.752t-6.825-2.434v-2.429q3.584.351,7.171.347a37.775,37.775,0,0,0,12.035-1.618Z" transform="translate(-44.931 -242.19)" fill="#fff"/>
      <path id="Path_5" data-name="Path 5" d="M309.516,323.026q-3.537-3.644-3.531-10.125a12.786,12.786,0,0,1,2.836-8.56,21.338,21.338,0,0,1,6.712-5.323,83.223,83.223,0,0,1,10.239-4.166,53.923,53.923,0,0,0,9.6-4.051,5.6,5.6,0,0,0,3.124-4.976v-7.171q0-6.713-2.832-9.2t-7.927-2.487q-8.1,0-11.458,4.166a7.3,7.3,0,0,1,3.879,2.429,6.937,6.937,0,0,1,1.562,4.629,5.859,5.859,0,0,1-1.854,4.568,6.782,6.782,0,0,1-4.745,1.679,5.846,5.846,0,0,1-4.859-2.026,7.605,7.605,0,0,1-1.618-4.916,7.718,7.718,0,0,1,1.328-4.628,16.369,16.369,0,0,1,3.995-3.7,23.978,23.978,0,0,1,7.058-3.237,32.809,32.809,0,0,1,9.372-1.276q9.025,0,13.652,4.281a13.07,13.07,0,0,1,3.879,6.421,40.537,40.537,0,0,1,.984,9.9v32.168a8.054,8.054,0,0,0,.808,4.166,3.033,3.033,0,0,0,2.776,1.27,5.512,5.512,0,0,0,2.6-.633,15.2,15.2,0,0,0,2.606-1.8l1.272,1.969a28.258,28.258,0,0,1-5.15,3.3,12.932,12.932,0,0,1-5.38.98q-5.557,0-7.753-2.776a11.76,11.76,0,0,1-2.2-7.518q-3.468,5.787-7.982,8.038a22.455,22.455,0,0,1-10.182,2.256Q313.041,326.67,309.516,323.026Zm28.984-9.774V290.571a8.008,8.008,0,0,1-2.894,2.659q-1.852,1.042-5.67,2.777a53.238,53.238,0,0,0-7.115,3.531,15.549,15.549,0,0,0-4.685,4.569,12.9,12.9,0,0,0-1.971,7.405q0,5.212,2.547,7.869a8.852,8.852,0,0,0,6.712,2.664Q333.065,322.046,338.5,313.252Z" transform="translate(-35.455 -235.145)" fill="#fff"/>
      <path id="Path_6" data-name="Path 6" d="M403.638,269.048a13.231,13.231,0,0,1,3.124,5.784,38.013,38.013,0,0,1,.924,9.374V315.1q0,4.745,1.965,6.538t6.828,1.8v2.429q-10.649-.459-13.887-.464t-12.958.464v-2.429q4.28,0,5.96-1.8t1.679-6.538v-33.44q0-6.477-1.852-9.892t-7.522-3.414a13.7,13.7,0,0,0-8.447,2.777,17.915,17.915,0,0,0-5.726,7.579,27.248,27.248,0,0,0-2.026,10.7V315.1q0,4.745,1.678,6.538t5.957,1.8v2.429q-9.717-.459-12.959-.464t-13.887.464v-2.429q4.861,0,6.828-1.8t1.971-6.538V278.884q0-5.32-1.971-7.752t-6.828-2.43v-2.429q3.707.345,7.177.347A37.788,37.788,0,0,0,371.7,265v13.657q2.893-7.4,8.042-10.706a21.119,21.119,0,0,1,11.627-3.3Q399.469,264.65,403.638,269.048Z" transform="translate(-20.868 -235.145)" fill="#fff"/>
      <path id="Path_7" data-name="Path 7" d="M450.478,268.355q5.443,3.584,5.44,8.911a6.4,6.4,0,0,1-1.735,4.742,5.957,5.957,0,0,1-4.4,1.735,6.758,6.758,0,0,1-4.513-1.562,5.238,5.238,0,0,1-1.852-4.221,6.214,6.214,0,0,1,1.392-4.109,6.734,6.734,0,0,1,3.471-2.256,8.758,8.758,0,0,0-4.109-3.475,14.653,14.653,0,0,0-6.307-1.389,13.22,13.22,0,0,0-7.983,2.721q-3.7,2.717-6.134,9.028t-2.43,16.6q0,14.347,4.629,20.885t12.035,6.538a17.033,17.033,0,0,0,9.431-2.894,21.108,21.108,0,0,0,7.345-9.024l2.2.812a24.074,24.074,0,0,1-7.35,11.34q-5.374,4.741-13.942,4.742a23.832,23.832,0,0,1-13.016-3.7,25.162,25.162,0,0,1-9.2-10.706,37.206,37.206,0,0,1-3.354-16.257,38.863,38.863,0,0,1,3.414-16.663,27.256,27.256,0,0,1,9.544-11.4,24.587,24.587,0,0,1,14-4.108A23.976,23.976,0,0,1,450.478,268.355Z" transform="translate(-2.797 -235.145)" fill="#fff"/>
      <path id="Path_8" data-name="Path 8" d="M509.647,265.885V268.2a6.54,6.54,0,0,0-4.108,2.082,18.375,18.375,0,0,0-3.414,6.018l-18.976,49.756-3.935,10.069q-2.2,5.667-4.976,8.1a10.04,10.04,0,0,1-4.164,2.312,17.58,17.58,0,0,1-4.859.694,8.494,8.494,0,0,1-5.67-1.852,6.3,6.3,0,0,1-2.2-5.088,6.137,6.137,0,0,1,1.622-4.456,5.979,5.979,0,0,1,4.512-1.679A6.217,6.217,0,0,1,467.7,335.6a4.985,4.985,0,0,1,1.679,3.991,5.61,5.61,0,0,1-3.123,5.206,1.6,1.6,0,0,0,.694.117q6.363,0,9.836-9.028l4.051-10.529-20.945-50.567q-1.967-3.929-3.934-5.206a7.209,7.209,0,0,0-3.936-1.272v-2.429a83.324,83.324,0,0,0,11.341.694q5.788,0,15.046-.694v2.429a19.219,19.219,0,0,0-6.078.695q-1.908.7-1.909,3.354a14.754,14.754,0,0,0,1.389,5.67L485.7,312.514l12.841-33.441a16.925,16.925,0,0,0,1.276-5.323,4.285,4.285,0,0,0-2.082-3.931,15.345,15.345,0,0,0-6.6-1.622v-2.312q6.132.345,9.721.347Q505.945,266.232,509.647,265.885Z" transform="translate(10.353 -234.757)" fill="#fff"/>
    </g>
    <g id="Group_2" data-name="Group 2" transform="translate(137.527 370.744)">
      <path id="Path_9" data-name="Path 9" d="M137.078,340.048a7.889,7.889,0,0,1,6.42,3.1l-1.638,1.017a6.1,6.1,0,0,0-4.782-2.285,6.74,6.74,0,0,0,0,13.46,6.509,6.509,0,0,0,4.435-1.784v-3.37h-5.675v-1.833h7.732v5.969a8.612,8.612,0,0,1-6.492,2.853,8.564,8.564,0,0,1,0-17.128Z" transform="translate(-128.579 -340.048)" fill="#fff"/>
      <path id="Path_10" data-name="Path 10" d="M157.337,350.216h-3.3v6.571h-2.059v-16.53h6.642c3.023,0,5.179,1.929,5.179,4.98a4.563,4.563,0,0,1-4.287,4.805l4.46,6.744h-2.429Zm1.038-8.128h-4.334v6.32h4.334a3.163,3.163,0,1,0,0-6.32Z" transform="translate(-121.238 -339.982)" fill="#fff"/>
      <path id="Path_11" data-name="Path 11" d="M183.713,353.114h-8.377l-1.461,3.673h-2.281l6.642-16.53h2.551l6.667,16.53h-2.281Zm-7.781-1.833h7.16l-3.568-9.193Z" transform="translate(-115.086 -339.982)" fill="#fff"/>
      <path id="Path_12" data-name="Path 12" d="M194.751,340.257h6.643a4.983,4.983,0,1,1,0,9.959H196.81v6.571h-2.059Zm6.392,1.831H196.81v6.3h4.334a3.152,3.152,0,1,0,0-6.3Z" transform="translate(-107.822 -339.982)" fill="#fff"/>
      <path id="Path_13" data-name="Path 13" d="M226.99,349.2h-9.666v7.588h-2.055v-16.53h2.055v7.111h9.666v-7.111h2.057v16.53H226.99Z" transform="translate(-101.386 -339.982)" fill="#fff"/>
      <path id="Path_14" data-name="Path 14" d="M238.144,340.257H240.2v16.53h-2.059Z" transform="translate(-94.211 -339.982)" fill="#fff"/>
      <path id="Path_15" data-name="Path 15" d="M251.584,348.595a8.251,8.251,0,0,1,8.427-8.547,7.438,7.438,0,0,1,6.344,3.268l-1.735.968a5.61,5.61,0,0,0-4.608-2.405c-3.543,0-6.3,2.777-6.3,6.716,0,3.919,2.754,6.72,6.3,6.72a5.543,5.543,0,0,0,4.608-2.405l1.76.966a7.508,7.508,0,0,1-6.369,3.272A8.25,8.25,0,0,1,251.584,348.595Z" transform="translate(-89.995 -340.048)" fill="#fff"/>
      <path id="Path_16" data-name="Path 16" d="M284.068,340.257h5.65a8.041,8.041,0,0,1,8.476,8.272c0,4.715-3.346,8.258-8.476,8.258h-5.65Zm5.65,14.693a6.078,6.078,0,0,0,6.345-6.421c0-3.567-2.257-6.441-6.345-6.441h-3.6V354.95Z" transform="translate(-79.805 -339.982)" fill="#fff"/>
      <path id="Path_17" data-name="Path 17" d="M306.719,340.257h10.827v1.831h-8.774v5.327h8.6v1.837h-8.6v5.7h8.774v1.837H306.719Z" transform="translate(-72.7 -339.982)" fill="#fff"/>
      <path id="Path_18" data-name="Path 18" d="M327.355,352.956a6.993,6.993,0,0,0,5.206,2.353c2.947,0,3.89-1.586,3.89-2.853,0-1.977-2.009-2.526-4.188-3.119-2.652-.695-5.6-1.441-5.6-4.686,0-2.725,2.429-4.585,5.674-4.585a7.768,7.768,0,0,1,5.876,2.308l-1.239,1.509a6.328,6.328,0,0,0-4.787-1.985c-1.981,0-3.393,1.069-3.393,2.631,0,1.658,1.909,2.154,4.015,2.723,2.7.719,5.776,1.562,5.776,5.033,0,2.405-1.639,4.855-6.1,4.855a8.185,8.185,0,0,1-6.345-2.627Z" transform="translate(-66.608 -340.042)" fill="#fff"/>
      <path id="Path_19" data-name="Path 19" d="M347.393,340.257h2.059v16.53h-2.059Z" transform="translate(-59.942 -339.982)" fill="#fff"/>
      <path id="Path_20" data-name="Path 20" d="M369.333,340.048a7.894,7.894,0,0,1,6.421,3.1l-1.639,1.017a6.093,6.093,0,0,0-4.782-2.285,6.74,6.74,0,0,0,0,13.46,6.506,6.506,0,0,0,4.435-1.784v-3.37h-5.674v-1.833h7.732v5.969a8.618,8.618,0,0,1-6.493,2.853,8.564,8.564,0,0,1,0-17.128Z" transform="translate(-55.726 -340.048)" fill="#fff"/>
      <path id="Path_21" data-name="Path 21" d="M386.295,343.453v13.334h-2.059v-16.53h2.107l9.516,13.059V340.257h2.059v16.53h-1.982Z" transform="translate(-48.385 -339.982)" fill="#fff"/>
      <path id="Path_22" data-name="Path 22" d="M407.037,340.257H417.87v1.831H409.1v5.327h8.6v1.837h-8.6v5.7h8.774v1.837H407.037Z" transform="translate(-41.233 -339.982)" fill="#fff"/>
      <path id="Path_23" data-name="Path 23" d="M432.57,350.216h-3.3v6.571h-2.059v-16.53h6.643c3.023,0,5.179,1.929,5.179,4.98a4.563,4.563,0,0,1-4.287,4.805l4.46,6.744h-2.43Zm1.038-8.128h-4.335v6.32h4.335a3.163,3.163,0,1,0,0-6.32Z" transform="translate(-34.904 -339.982)" fill="#fff"/>
    </g>
  </g>
</svg>
